<!--?xml version="1.0" encoding="utf-8"?-->
<!-- Generator: Adobe Illustrator 18.1.1, SVG Export Plug-In . SVG Version: 6.00 Build 0)  -->

<svg version="1.1" id="_x31_0" xmlns="http://www.w3.org/2000/svg" xmlns:xlink="http://www.w3.org/1999/xlink" x="0px" y="0px" viewBox="0 0 512 512" style="width: 64px; height: 64px; opacity: 1;" xml:space="preserve">
<style type="text/css">
	.st0{fill:#374149;}
</style>
<g>
	<path class="st0" d="M214.219,392.472c-6.649,1.109-13.367,1.515-20.047,1.238c-0.012,0-0.023,0-0.035-0.003
		c-4.238-0.176-8.457-0.649-12.633-1.375c-0.43-0.074-0.855-0.153-1.285-0.23c-3.731-0.699-7.422-1.633-11.055-2.762
		c-0.55-0.176-1.11-0.329-1.66-0.512c-5.859-1.942-11.539-4.453-16.977-7.5c-0.984-0.551-1.945-1.133-2.906-1.715
		c-2.656-1.613-5.242-3.351-7.75-5.226c-0.817-0.61-1.633-1.218-2.43-1.851c-5.031-4.016-9.73-8.562-13.992-13.664
		c-0.188-0.223-0.367-0.454-0.555-0.68c-1.378-1.683-2.726-3.41-4.011-5.207c-0.934-1.312-1.782-2.656-2.641-3.996
		c-0.722-1.133-1.43-2.27-2.106-3.426c-1.504-2.57-2.871-5.187-4.117-7.844c-0.684-1.457-1.34-2.922-1.946-4.406
		c-0.977-2.378-1.844-4.785-2.621-7.206c-0.582-1.825-1.122-3.657-1.594-5.508c-0.566-2.215-1.05-4.442-1.461-6.68
		c-0.375-2.062-0.683-4.133-0.926-6.214c-0.25-2.141-0.426-4.282-0.531-6.426c-0.11-2.195-0.141-4.394-0.102-6.598
		c0.039-2.038,0.137-4.074,0.301-6.105c0.195-2.375,0.473-4.742,0.844-7.106c0.273-1.77,0.586-3.527,0.957-5.278
		c0.582-2.734,1.274-5.449,2.098-8.145c0.39-1.293,0.801-2.586,1.246-3.867c1.129-3.222,2.406-6.41,3.89-9.542
		c0.156-0.328,0.285-0.668,0.445-0.996l27.383,4.675c5.09,0.836,10.266-0.418,14.523-3.422l11.856-8.43l9.598-6.848
		c4.175-3.004,7.015-7.515,7.851-12.606l4.422-27.378c1.622-0.203,3.298-0.301,4.966-0.406c0.37,0.012,0.734,0.016,1.117,0.043
		c0.027,0.054,0.054,0.109,0.086,0.164c2.774-0.219,5.563-0.317,8.317-0.23c31.422,0.836,59.031,16.351,76.262,39.832
		c0.016-0.004,0.031-0.008,0.047-0.008c0.168,0.234,0.371,0.442,0.535,0.672c1.754,2.504,3.422,5.094,4.843,7.762
		c10.934,18.621,14.942,39.742,12.606,59.942c12.77,16.531,32.722,27.218,55.18,27.218c2.172,0,4.343-0.086,6.511-0.254
		c10.77-44.41,2.84-92.996-25.71-132.902c-0.75-1.082-1.586-2.168-2.422-3.258c-0.617-0.821-1.324-1.543-1.957-2.352
		c-2.074-2.652-4.23-5.242-6.465-7.766c-0.379-0.418-0.711-0.902-1.094-1.312c-0.02,0.007-0.035,0.015-0.051,0.023
		c-23.285-25.742-54.859-44.207-91.394-50.84c-0.07-0.012-0.133-0.023-0.203-0.043c-1.109-0.199-2.199-0.449-3.32-0.629
		c-4.91-0.801-9.848-1.27-14.77-1.562c-1.278-0.086-2.539-0.183-3.817-0.238c-0.086-0.008-0.167-0.015-0.254-0.019l-0.004,0.008
		c-2.445-0.11-4.89-0.176-7.328-0.192c-0.281-0.015-0.539-0.023-0.824-0.039l3.086-19.183c1.336-8.684-3.172-17.118-11.106-20.707
		l-85.398-38.898c-5.339-2.492-11.457-2.164-16.582,0.426c-0.016,0.008-0.031,0.016-0.047,0.024
		c-0.871,0.445-1.777,0.805-2.574,1.382L8.106,110.804c-5.594,4.007-8.684,10.77-8.016,17.613l9.098,93.504
		c0.835,8.598,7.347,15.606,15.945,17.191l16.641,2.813l2.637,0.469c-17.02,48.332-11.008,103.922,21.046,148.738
		c1.809,2.535,3.797,4.855,5.719,7.254c0.168,0.211,0.332,0.426,0.5,0.633c38.945,48.035,100.386,68.5,158.121,57.18
		c0.262-0.051,0.52-0.102,0.782-0.157c8.824-1.773,17.539-4.277,26.086-7.558c2.289-0.867,4.562-1.774,6.817-2.738
		c1.382-0.605,2.766-1.195,4.137-1.843c4.094-1.891,8.144-3.891,12.074-6.118c-0.039-0.015-0.078-0.039-0.121-0.054
		c0.058-0.035,0.125-0.058,0.183-0.094C254.711,427.448,232.419,411.921,214.219,392.472z M59.114,296.468
		c0.414,8.098,1.586,16.113,3.586,23.793l-8.012,2.172c-2.254-8.348-3.507-16.867-4.007-25.465
		c-0.332-8.43-0.082-16.946,1.086-25.293c1.168-8.348,3.254-16.532,5.926-24.547l7.93,2.754c-2.586,7.434-4.422,15.199-5.507,22.958
		C58.946,280.605,58.695,288.62,59.114,296.468z M44.992,191.355l-5.414-55.504l58.27-41.66l33.969,15.485l16.878,7.777
		l-68.922,49.18L44.992,191.355z M69.426,207.3l86.442-61.77l-10.938,67.371l-8.347,6.011l-39.473-6.758L69.426,207.3z" style="fill: rgb(75, 75, 75);"></path>
	<path class="st0" d="M350.211,102.956c-23.61,0-46.074,5.172-66.317,14.317c-3.843,1.699-7.641,3.496-11.343,5.488
		c0.042,0.016,0.082,0.035,0.121,0.054c-0.058,0.031-0.121,0.059-0.184,0.094c25.297,10.766,48.086,26.961,66.454,47.503
		c3.676-0.422,7.43-0.668,11.27-0.668c52.426,0,95.004,42.57,95.004,94.914c0,52.43-42.578,95.004-95.004,95.004
		c-52.344,0-94.918-42.574-94.918-95.004c0-4.504,0.332-8.93,0.918-13.187c-11.102-14.11-27.129-23.626-45.414-26.547
		c-1.918-0.336-3.758-0.504-5.594-0.668c-3.543-0.156-6.898-1.168-9.894-2.754c-0.199-0.118-0.446-0.168-0.637-0.294
		c-0.004,0.008-0.004,0.012-0.004,0.02c-0.047-0.027-0.102-0.039-0.149-0.062c-3.926,13.859-6.011,28.469-6.011,43.492
		c0,89.242,72.546,161.789,161.703,161.789C439.453,426.448,512,353.902,512,264.66C512,175.504,439.453,102.956,350.211,102.956z" style="fill: rgb(75, 75, 75);"></path>
</g>
</svg>
